#!OML:ASF H:\MichaelJackson\Top Level 1\Subject 1\Session 1\male.ASF
:FULLY-SPECIFIED
:DEGREES
780
root 5.21995 16.7666 0.38538 5.08 3.05649 -9.94189
lowerback 0.234617 2.9948 4.92363
upperback 3.94325 3.72149 5.98622
thorax 3.87069 1.91187 3.57293
lowerneck -9.94006 -4.1249 0.492028
upperneck 40.2749 -5.27548 -2.48049
head 15.8408 -2.38139 -1.96465
rclavicle 1.19271e-014 -3.97569e-015
rhumerus -17.1975 40.9216 -84.0653
rradius 135.157
rwrist -17.629
rhand -45.4337 -61.2335
rfingers 7.12502
rthumb -18.201 450.402
lclavicle 1.19271e-014 -3.97569e-015
lhumerus -63.085 -4.71833 93.2328
lradius 51.8103
lwrist 11.7679
lhand -0.555101 12.6713
lfingers 7.12502
lthumb 25.0586 41.0474
rfemur -15.5937 -0.105848 32.8818
rtibia 34.2691
rfoot -19.1977 7.35255
rtoes 23.9535
lfemur -38.1681 -5.74718 -11.1641
ltibia 68.41
lfoot -0.569922 0.672887
ltoes 31.4593
781
root 5.225 16.7272 0.430046 4.95425 3.18964 -10.3151
lowerback 0.335764 2.91574 5.47498
upperback 3.88996 3.61455 6.09678
thorax 3.79092 1.87316 3.3718
lowerneck -9.94708 -4.06361 0.464905
upperneck 40.1831 -5.11934 -2.62202
head 15.793 -2.34175 -1.99352
rclavicle -2.66371e-014 -1.35174e-014
rhumerus -17.0981 40.9787 -83.9398
rradius 135.099
rwrist -17.8421
rhand -45.3917 -61.5845
rfingers 7.12502
rthumb -18.1605 450.757
lclavicle -2.66371e-014 -1.35174e-014
lhumerus -62.909 -4.47238 93.2585
lradius 51.5756
lwrist 11.0823
lhand -0.98175 12.5407
lfingers 7.12502
lthumb 24.6497 40.9732
rfemur -15.0734 -0.623129 33.3317
rtibia 33.9078
rfoot -19.7062 7.49713
rtoes 25.2806
lfemur -38.4797 -5.07952 -10.9132
ltibia 69.359
lfoot -0.37917 0.388288
ltoes 31.566
782
root 5.2314 16.6979 0.473353 4.86983 3.41775 -10.6993
lowerback 0.407174 2.79901 6.03339
upperback 3.82359 3.45679 6.2246
thorax 3.71294 1.80837 3.18529
lowerneck -9.94152 -3.99873 0.426536
upperneck 40.1126 -4.95358 -2.76802
head 15.7542 -2.29977 -2.02121
rclavicle 5.38706e-014 5.56597e-014
rhumerus -17.0132 41.0613 -83.8215
rradius 135.021
rwrist -17.9952
rhand -45.3649 -61.8906
rfingers 7.12502
rthumb -18.1348 451.065
lclavicle 5.38706e-014 5.56597e-014
lhumerus -62.7259 -4.16968 93.3101
lradius 51.409
lwrist 10.4351
lhand -1.46404 12.4537
lfingers 7.12502
lthumb 24.1874 40.9485
rfemur -14.6695 -1.27346 33.7696
rtibia 33.5902
rfoot -20.0219 7.78948
rtoes 26.4064
lfemur -38.8474 -4.5489 -10.6127
ltibia 70.2078
lfoot 0.0157112 0.0611477
ltoes 31.5022
783
root 5.23853 16.6797 0.514826 4.816 3.74353 -11.067
lowerback 0.459001 2.65435 6.55931
upperback 3.75353 3.26214 6.36235
thorax 3.63764 1.72352 3.02771
lowerneck -9.93039 -3.94315 0.383869
upperneck 40.0576 -4.80479 -2.90451
head 15.7228 -2.26364 -2.04699
rclavicle 5.38706e-014 1.11319e-014
rhumerus -16.9574 41.1431 -83.71
rradius 134.938
rwrist -18.0425
rhand -45.3516 -62.1157
rfingers 7.12502
rthumb -18.122 451.291
lclavicle 5.38706e-014 1.11319e-014
lhumerus -62.5172 -3.84737 93.4036
lradius 51.2971
lwrist 9.88265
lhand -2.04757 12.4081
lfingers 7.12502
lthumb 23.6278 40.9763
rfemur -14.366 -1.99274 34.1615
rtibia 33.306
rfoot -20.1624 8.19711
rtoes 27.3445
lfemur -39.2728 -4.18777 -10.2828
ltibia 70.9457
lfoot 0.67908 -0.326597
ltoes 31.333
784
root 5.24558 16.673 0.554259 4.78021 4.15442 -11.3774
lowerback 0.506536 2.49515 7.00585
upperback 3.68937 3.05027 6.49153
thorax 3.56418 1.62755 2.90554
lowerneck -9.92531 -3.90588 0.348269
upperneck 40.0171 -4.69827 -3.00884
head 15.7006 -2.23918 -2.06739
rclavicle -5.36719e-015 -1.27222e-014
rhumerus -16.9651 41.1902 -83.6307
rradius 134.874
rwrist -17.9656
rhand -45.3557 -62.2372
rfingers 7.12502
rthumb -18.1259 451.413
lclavicle -5.36719e-015 -1.27222e-014
lhumerus -62.2821 -3.55851 93.5474
lradius 51.2395
lwrist 9.46406
lhand -2.7663 12.386
lfingers 7.12502
lthumb 22.9382 41.0414
rfemur -14.1395 -2.71044 34.4664
rtibia 33.0483
rfoot -20.161 8.64847
rtoes 28.0058
lfemur -39.7417 -4.0036 -9.9634
ltibia 71.5696
lfoot 1.61688 -0.770003
ltoes 31.3351
785
root 5.25185 16.6777 0.591488 4.7481 4.62828 -11.5864
lowerback 0.566954 2.33898 7.32856
upperback 3.64052 2.84672 6.58983
thorax 3.49179 1.53257 2.81986
lowerneck -9.9265 -3.89837 0.331528
upperneck 39.9836 -4.66148 -3.06169
head 15.6831 -2.23369 -2.08005
rclavicle 1.5704e-014 -4.13472e-014
rhumerus -17.0557 41.1583 -83.5971
rradius 134.845
rwrist -17.7857
rhand -45.3744 -62.2493
rfingers 7.12502
rthumb -18.1438 451.423
lclavicle 1.5704e-014 -4.13472e-014
lhumerus -62.0149 -3.36151 93.7443
lradius 51.2185
lwrist 9.19193
lhand -3.62901 12.3546
lfingers 7.12502
lthumb 22.1102 41.1104
rfemur -13.9649 -3.35456 34.6451
rtibia 32.8217
rfoot -20.0493 9.0581
rtoes 28.3706
lfemur -40.2252 -3.98437 -9.70657
ltibia 72.0713
lfoot 2.82173 -1.24369
ltoes 31.677
786
root 5.25687 16.6938 0.626547 4.71081 5.13582 -11.6614
lowerback 0.655354 2.19956 7.50027
upperback 3.61453 2.67131 6.63632
thorax 3.4204 1.44826 2.76366
lowerneck -9.93536 -3.92459 0.343946
upperneck 39.9531 -4.7087 -3.04812
head 15.6681 -2.24976 -2.08244
rclavicle 3.97569e-014 1.98785e-014
rhumerus -17.2465 41.0266 -83.6325
rradius 134.867
rwrist -17.5363
rhand -45.4131 -62.178
rfingers 7.12502
rthumb -18.1812 451.348
lclavicle 3.97569e-014 1.98785e-014
lhumerus -61.7277 -3.30661 93.9916
lradius 51.2389
lwrist 9.06668
lhand -4.61584 12.2756
lfingers 7.12502
lthumb 21.1625 41.1406
rfemur -13.8254 -3.87373 34.6738
rtibia 32.6408
rfoot -19.8369 9.34027
rtoes 28.3586
lfemur -40.6837 -4.0977 -9.55698
ltibia 72.4376
lfoot 4.22298 -1.71942
ltoes 32.3614
787
root 5.26043 16.7208 0.659541 4.66406 5.6432 -11.5865
lowerback 0.782652 2.089 7.5156
upperback 3.61642 2.54073 6.61495
thorax 3.35062 1.38327 2.72311
lowerneck -9.9501 -3.9833 0.393838
upperneck 39.9202 -4.84314 -2.96023
head 15.6525 -2.28661 -2.07291
rclavicle 2.26615e-014 4.37326e-014
rhumerus -17.5342 40.7818 -83.7465
rradius 134.945
rwrist -17.257
rhand -45.4631 -62.0526
rfingers 7.12502
rthumb -18.2293 451.218
lclavicle 2.26615e-014 4.37326e-014
lhumerus -61.4308 -3.4259 94.2791
lradius 51.3017
lwrist 9.0756
lhand -5.68323 12.1447
lfingers 7.12502
lthumb 20.1368 41.1211
rfemur -13.7149 -4.24701 34.5479
rtibia 32.531
rfoot -19.5229 9.44366
rtoes 27.9695
lfemur -41.0701 -4.29891 -9.54278
ltibia 72.652
lfoot 5.71888 -2.16617
ltoes 33.4292
788
root 5.26262 16.758 0.690592 4.61044 6.10834 -11.3657
lowerback 0.950812 2.01982 7.38442
upperback 3.64783 2.47073 6.52184
thorax 3.28455 1.34587 2.68912
lowerneck -9.96774 -4.07048 0.47359
upperneck 39.8882 -5.05621 -2.79854
head 15.6381 -2.3418 -2.04914
rclavicle -4.85035e-014 -8.74653e-015
rhumerus -17.9016 40.4292 -83.9327
rradius 135.073
rwrist -16.9909
rhand -45.5219 -61.9105
rfingers 7.12502
rthumb -18.2858 451.071
lclavicle -4.85035e-014 -8.74653e-015
lhumerus -61.1382 -3.72905 94.5976
lradius 51.4127
lwrist 9.19314
lhand -6.75482 11.9572
lfingers 7.12502
lthumb 19.1066 41.0387
rfemur -13.6441 -4.46903 34.2828
rtibia 32.5287
rfoot -19.1017 9.34282
rtoes 27.1276
lfemur -41.3394 -4.53031 -9.67171
ltibia 72.6992
lfoot 7.17718 -2.56842
ltoes 34.8264
789
root 5.2637 16.8043 0.719937 4.55454 6.49477 -11.0216
lowerback 1.16043 1.99466 7.13275
upperback 3.7063 2.46348 6.36443
thorax 3.22054 1.33766 2.65508
lowerneck -9.97885 -4.17534 0.580855
upperneck 39.8551 -5.32212 -2.58561
head 15.622 -2.40812 -2.01615
rclavicle -1.53064e-014 3.57812e-014
rhumerus -18.3102 40.0067 -84.1734
rradius 135.23
rwrist -16.7622
rhand -45.5824 -61.7745
rfingers 7.12502
rthumb -18.344 450.93
lclavicle -1.53064e-014 3.57812e-014
lhumerus -60.8593 -4.18333 94.9291
lradius 51.5712
lwrist 9.38125
lhand -7.75009 11.7231
lfingers 7.12502
lthumb 18.1493 40.8964
rfemur -13.6368 -4.55949 33.9109
rtibia 32.6776
rfoot -18.5455 9.06317
rtoes 25.8616
lfemur -41.451 -4.73517 -9.92827
ltibia 72.5662
lfoot 8.44026 -2.96612
ltoes 36.3329
790
root 5.26454 16.8583 0.747505 4.50869 6.76501 -10.589
lowerback 1.40151 2.01419 6.79607
upperback 3.7879 2.51723 6.16041
thorax 3.16104 1.35842 2.62014
lowerneck -9.98299 -4.28402 0.70257
upperneck 39.8301 -5.60606 -2.34896
head 15.6092 -2.47647 -1.97849
rclavicle 2.90226e-014 2.8625e-014
rhumerus -18.7168 39.5665 -84.4406
rradius 135.396
rwrist -16.596
rhand -45.6417 -61.6682
rfingers 7.12502
rthumb -18.4011 450.818
lclavicle 2.90226e-014 2.8625e-014
lhumerus -60.5852 -4.72529 95.256
lradius 51.7585
lwrist 9.58875
lhand -8.58447 11.4524
lfingers 7.12502
lthumb 17.3464 40.6983
rfemur -13.7369 -4.56197 33.4689
rtibia 33.0249
rfoot -17.8199 8.68782
rtoes 24.2549
lfemur -41.383 -4.86402 -10.2842
ltibia 72.2407
lfoot 9.35291 -3.42805
ltoes 37.681
791
root 5.2661 16.9183 0.773213 4.48467 6.89465 -10.1082
lowerback 1.66069 2.07188 6.41464
upperback 3.88651 2.62083 5.93078
thorax 3.10804 1.4033 2.584
lowerneck -9.9801 -4.38056 0.818621
upperneck 39.8218 -5.8678 -2.1176
head 15.6049 -2.53674 -1.93924
rclavicle -6.22196e-014 -5.64548e-014
rhumerus -19.0673 39.1696 -84.695
rradius 135.537
rwrist -16.4818
rhand -45.6839 -61.6034
rfingers 7.12502
rthumb -18.4417 450.749
lclavicle -6.22196e-014 -5.64548e-014
lhumerus -60.3066 -5.26969 95.5529
lradius 51.9578
lwrist 9.75788
lhand -9.18308 11.1358
lfingers 7.12502
lthumb 16.7702 40.4315
rfemur -13.993 -4.52647 32.9939
rtibia 33.6176
rfoot -16.8889 8.31309
rtoes 22.4698
lfemur -41.1299 -4.89226 -10.6989
ltibia 71.713
lfoot 9.801 -3.99165
ltoes 38.7239
792
root 5.26958 16.9825 0.797104 4.49862 6.86525 -9.60479
lowerback 1.91702 2.16032 6.01166
upperback 3.99668 2.76182 5.694
thorax 3.06766 1.4664 2.55338
lowerneck -9.97669 -4.45287 0.91319
upperneck 39.8399 -6.07524 -1.91895
head 15.6152 -2.58123 -1.90299
rclavicle -3.79679e-014 -5.00937e-014
rhumerus -19.3297 38.8695 -84.9093
rradius 135.632
rwrist -16.4074
rhand -45.708 -61.5772
rfingers 7.12502
rthumb -18.4648 450.721
lclavicle -3.79679e-014 -5.00937e-014
lhumerus -60.0053 -5.73811 95.8022
lradius 52.1423
lwrist 9.85067
lhand -9.5142 10.781
lfingers 7.12502
lthumb 16.4514 40.1035
rfemur -14.4605 -4.50767 32.5023
rtibia 34.5007
rfoot -15.7266 8.03673
rtoes 20.6211
lfemur -40.7024 -4.81406 -11.1446
ltibia 70.9739
lfoot 9.71717 -4.66272
ltoes 39.3704
793
root 5.27598 17.0491 0.819047 4.55971 6.68163 -9.09041
lowerback 2.15564 2.26576 5.59968
upperback 4.11303 2.92078 5.4598
thorax 3.0426 1.53817 2.53149
lowerneck -9.97275 -4.49216 0.973422
upperneck 39.887 -6.20632 -1.76879
head 15.6414 -2.60473 -1.87091
rclavicle 2.0276e-014 3.4191e-014
rhumerus -19.4624 38.6872 -85.051
rradius 135.659
rwrist -16.4078
rhand -45.7043 -61.5465
rfingers 7.12502
rthumb -18.4612 450.69
lclavicle 2.0276e-014 3.4191e-014
lhumerus -59.6642 -6.06345 95.9838
lradius 52.2879
lwrist 9.84219
lhand -9.57975 10.3962
lfingers 7.12502
lthumb 16.3883 39.7239
rfemur -15.1892 -4.54599 31.9934
rtibia 35.7161
rfoot -14.2947 7.93446
rtoes 18.9707
lfemur -40.1209 -4.662 -11.6061
ltibia 70.0165
lfoot 9.10176 -5.39709
ltoes 39.6008
794
root 5.28598 17.116 0.839205 4.67241 6.35851 -8.56477
lowerback 2.37148 2.37245 5.18026
upperback 4.2298 3.07704 5.23003
thorax 3.02953 1.60816 2.5192
lowerneck -9.97842 -4.48995 0.997259
upperneck 39.9646 -6.24499 -1.67649
head 15.6863 -2.60216 -1.84461
rclavicle 1.63003e-014 1.74931e-014
rhumerus -19.4691 38.6461 -85.1242
rradius 135.616
rwrist -16.4537
rhand -45.6633 -61.4972
rfingers 7.12502
rthumb -18.4218 450.645
lclavicle 1.63003e-014 1.74931e-014
lhumerus -59.2845 -6.19796 96.0793
lradius 52.3916
lwrist 9.73725
lhand -9.41238 9.99533
lfingers 7.12502
lthumb 16.5495 39.3096
rfemur -16.2366 -4.6719 31.457
rtibia 37.3395
rfoot -12.5938 8.02061
rtoes 17.6289
lfemur -39.4146 -4.48193 -12.08
ltibia 68.8574
lfoot 7.9924 -6.12453
ltoes 39.4408
